<svg width="150" height="150" viewBox="0 0 150 150" fill="none" xmlns="http://www.w3.org/2000/svg">
<circle cx="75" cy="75" r="73.5" stroke="#041F60" stroke-width="3"/>
<circle cx="74.5" cy="74.5" r="6.5" fill="#041F60"/>
<path d="M3.93934 73.9393C3.35355 74.5251 3.35355 75.4749 3.93934 76.0607L13.4853 85.6066C14.0711 86.1924 15.0208 86.1924 15.6066 85.6066C16.1924 85.0208 16.1924 84.0711 15.6066 83.4853L7.12132 75L15.6066 66.5147C16.1924 65.9289 16.1924 64.9792 15.6066 64.3934C15.0208 63.8076 14.0711 63.8076 13.4853 64.3934L3.93934 73.9393ZM26 73.5H5V76.5H26V73.5Z" fill="#041F60"/>
<path d="M61.0607 76.0607C61.6464 75.4749 61.6464 74.5251 61.0607 73.9393L51.5147 64.3934C50.9289 63.8076 49.9792 63.8076 49.3934 64.3934C48.8076 64.9792 48.8076 65.9289 49.3934 66.5147L57.8787 75L49.3934 83.4853C48.8076 84.0711 48.8076 85.0208 49.3934 85.6066C49.9792 86.1924 50.9289 86.1924 51.5147 85.6066L61.0607 76.0607ZM39 76.5H60V73.5H39V76.5Z" fill="#041F60"/>
<path d="M29.4148 83V61.1818H35.2812V64.9886H35.5085C35.9063 63.6345 36.5739 62.6117 37.5114 61.9205C38.4489 61.2197 39.5284 60.8693 40.75 60.8693C41.053 60.8693 41.3797 60.8883 41.7301 60.9261C42.0805 60.964 42.3883 61.0161 42.6534 61.0824V66.4517C42.3693 66.3665 41.9763 66.2907 41.4744 66.2244C40.9725 66.1581 40.5133 66.125 40.0966 66.125C39.2064 66.125 38.411 66.3191 37.7102 66.7074C37.0189 67.0862 36.4697 67.6165 36.0625 68.2983C35.6648 68.9801 35.4659 69.7661 35.4659 70.6562V83H29.4148Z" fill="#041F60"/>
</svg>
